<mxfile host="app.diagrams.net" modified="2024-05-03T08:00:11.590Z" agent="Mozilla/5.0 (Windows NT 10.0; Win64; x64) AppleWebKit/537.36 (KHTML, like Gecko) Chrome/122.0.0.0 Safari/537.36 Edg/122.0.0.0" version="24.2.8" etag="1JVxQzVILPh0dX395i-6" type="github">
  <diagram name="第 1 页" id="GX9aGmcQgRMzTz_SFeEH">
    <mxGraphModel>
      <root>
        <mxCell id="0" />
        <mxCell id="1" parent="0" />
      </root>
    </mxGraphModel>
  </diagram>
</mxfile>
